<?xml version="1.0" encoding="UTF-8"?>
<!DOCTYPE svg PUBLIC "-//W3C//DTD SVG 1.1//EN" "http://www.w3.org/Graphics/SVG/1.1/DTD/svg11.dtd">
<!-- Creator: CorelDRAW 2019 (64-Bit) -->
<svg xmlns="http://www.w3.org/2000/svg" xml:space="preserve" width="100%" height="100%" version="1.1" style="shape-rendering:geometricPrecision; text-rendering:geometricPrecision; image-rendering:optimizeQuality; fill-rule:evenodd; clip-rule:evenodd"
viewBox="0 0 13229.12 9525.52"
 xmlns:xlink="http://www.w3.org/1999/xlink"
 xmlns:xodm="http://www.corel.com/coreldraw/odm/2003">
 <defs>
  <style type="text/css">
   <![CDATA[
    .fil0 {fill:white}
   ]]>
  </style>
 </defs>
 <g id="Layer_x0020_1">
  <metadata id="CorelCorpID_0Corel-Layer"/>
  <path class="fil0" d="M7408.32 3174.48l1058.32 0 0 6350.52 -1058.32 0 0 -6350.52zm1587.48 6321.4l0 -1066.76c1795.08,-256.72 3175,-1800.56 3175,-3666.64 0,-2045.76 -1658.4,-3704.16 -3704.16,-3704.16l0 1058.32 -1058.32 0 0 -2116.64 1058.32 0c2630.24,0 4762.48,2132.24 4762.48,4762.48 0,2451.36 -1852.16,4470.2 -4233.32,4733.4zm-3175 -9495.88l1058.32 0 0 9525.52 -1058.32 0 0 -9525.52zm-5820.8 9495.88c2381.16,-263.2 4233.32,-2282.04 4233.32,-4733.4 0,-2451.36 -1852.16,-4470.2 -4233.32,-4733.4 173.76,-19.2 350.28,-29.08 529.16,-29.08 2630.24,0 4762.48,2132.24 4762.48,4762.48 0,2630.24 -2132.24,4762.48 -4762.48,4762.48 -178.88,0 -355.4,-9.88 -529.16,-29.08z"/>
 </g>
</svg>
